<?xml version="1.0" encoding="utf-8"?>

<!-- License Agreement at http://iconmonstr.com/license/ -->

<!DOCTYPE svg PUBLIC "-//W3C//DTD SVG 1.1//EN" "http://www.w3.org/Graphics/SVG/1.1/DTD/svg11.dtd">
<svg version="1.1" xmlns="http://www.w3.org/2000/svg" xmlns:xlink="http://www.w3.org/1999/xlink" x="0px" y="0px"
	 width="512px" height="512px" viewBox="0 0 512 512" enable-background="new 0 0 512 512" xml:space="preserve">
<path id="beer-2-icon" d="M250.925,77.056c21.55,0,39.804,14.087,46.075,33.554c3.68-1.396,7.667-2.167,11.837-2.167
	c18.434,0,33.375,14.942,33.375,33.376c0,18.433-14.941,33.376-33.375,33.376c-10.755,0-20.314-5.09-26.417-12.987
	c-8.466,7.263-19.463,11.662-31.495,11.662c-15.187,0-28.731-6.998-37.606-17.938c-7.297,8.54-18.14,13.959-30.252,13.959
	c-10.377,0-19.823-3.977-26.907-10.484c-6.066,8.359-15.907,13.801-27.025,13.801c-18.433,0-33.377-14.943-33.377-33.377
	c0-18.434,14.944-33.377,33.377-33.377c6.837,0,13.193,2.062,18.486,5.589c6.583-12.89,19.979-21.724,35.446-21.724
	c10.154,0,19.414,3.81,26.444,10.071C217.998,86.401,233.368,77.056,250.925,77.056z M250.925,50
	c-16.672,0-33.397,5.523-47.152,16.548c-22.147-7.217-47.131-2.492-65.155,13.592c-36.883-5.827-69.916,22.806-69.916,59.69
	c0,33.322,27.11,60.433,60.433,60.433c10.526,0,20.754-2.779,29.719-7.845c17.129,6.658,36.519,6.005,53.354-2.156
	c20.016,11.986,45.287,14.279,67.916,4.777c8.678,4.692,18.486,7.212,28.714,7.212c33.321,0,60.431-27.109,60.431-60.432
	c0-32.168-25.268-58.548-56.997-60.336C299.104,63.128,276.982,50,250.925,50z M204.595,403.293h-28.058V220.736
	c9.419,0.701,18.729-0.092,28.058-2.475V403.293z M337.325,414.349V219.066c-10.616,4.033-22.038,5.845-34.07,5.01v190.272
	c0,4.687,0.594,9.237,1.706,13.581H135.36c1.114-4.344,1.707-8.895,1.707-13.581V221.904c-11.524,1.155-23.112-0.208-34.07-3.981
	v196.426c0,11.399-9.241,20.642-20.644,20.642V462h275.615v-27.01C346.568,434.99,337.325,425.748,337.325,414.349z
	 M389.247,210.155h-31.278v33.958h25.104c41.479,0,29.057,76.34-25.104,107.752v37.086
	C454.677,352.398,474.785,210.155,389.247,210.155z"/>
</svg>
