<?xml version="1.0" encoding="utf-8"?>

<!-- The icon can be used freely in both personal and commercial projects with no attribution required, but always appreciated. 
You may NOT sub-license, resell, rent, redistribute or otherwise transfer the icon without express written permission from iconmonstr.com -->

<!DOCTYPE svg PUBLIC "-//W3C//DTD SVG 1.1//EN" "http://www.w3.org/Graphics/SVG/1.1/DTD/svg11.dtd">
<svg version="1.1" xmlns="http://www.w3.org/2000/svg" xmlns:xlink="http://www.w3.org/1999/xlink" x="0px" y="0px"
	 width="512px" height="512px" viewBox="0 0 512 512" enable-background="new 0 0 512 512" xml:space="preserve">
<path id="banknote-multi-6-icon" d="M462,321.067c-117.715,67.551-212.855-24.414-334.75,102.666L50,252.845l24.078-25.08
	l65.348,144.094l-0.032,0.137c127.809-95.908,192.184-20.162,310.864-78.215C455.315,304.864,459.955,316.587,462,321.067z
	 M250.495,160.257c-26.486,4.42-39.199,28.523-28.354,53.852c11.434,26.729,44.273,43.822,71.287,37.08
	c23.956-5.967,34.974-28.979,24.653-53.092C307.25,172.778,276.987,155.837,250.495,160.257z M284.979,228.915l2.514,5.877
	l-8.796,1.469l-2.255-5.26c-4.374,0.361-10.576-0.172-15.615-1.646l-1.237-10.182c4.981,0.885,13.018,2.051,17.701,0.117
	c3.995-1.645,3.49-5.6-2.585-6.867c-5.171-1.148-21.04-0.596-26.182-12.607c-2.125-4.979-1.152-12.469,7.679-16.113l-2.551-5.967
	l8.797-1.469l2.346,5.479c3.877-0.385,8.013-0.357,13.028,0.23c0.344,1.928,1.868,10.299,1.868,10.299
	c-3.496-0.484-9.259-1.391-13.957-0.328c-0.084,0.02-0.167,0.041-0.248,0.061c-5.526,1.377-4.146,5.49,0.613,6.723
	c9.75,2.186,22.963,3.221,27.5,13.822C297.118,220.751,292.433,226.53,284.979,228.915z M386.941,88.267
	c-122.767,79.906-206.177-9.207-305.997,87.531c23.221,50.883,57.375,125.711,71.517,156.701
	c102.483-78.92,194.65,1.58,308.578-79.445L386.941,88.267z M198.611,277.245c-12.612-11.031-37.205-25.018-53.675-23.07
	c-6.604-14.471-12.797-27.664-19.088-41.451c10.967-11.098,19.475-33.416,20.162-50.943c57.829-21.842,124.503,0.307,196.043-22.193
	c12.858,11.836,32.912,20.488,50.027,21.406l21.267,49.072c-11.181,13.039-18.783,29.947-21.231,47.029
	C331.671,275.679,263.191,255.144,198.611,277.245z"/>
</svg>
