<?xml version="1.0"?>

<!DOCTYPE svg PUBLIC '-//W3C//DTD SVG 1.0//EN' 'http://www.w3.org/TR/2001/REC-SVG-20010904/DTD/svg10.dtd'>
<svg fill-opacity="1" xmlns:xlink="http://www.w3.org/1999/xlink" color-rendering="auto" color-interpolation="auto" stroke="black" text-rendering="auto" stroke-linecap="square" stroke-miterlimit="10" stroke-opacity="1" shape-rendering="auto" fill="black" stroke-dasharray="none" font-weight="normal" stroke-width="1" xmlns="http://www.w3.org/2000/svg" font-family="&apos;Dialog&apos;" font-style="normal" stroke-linejoin="miter" font-size="12" stroke-dashoffset="0" image-rendering="auto">
  <!--Unicode Character 'POT OF FOOD' (U+1F372)-->
  <defs id="genericDefs" />
  <g>
    <g>
      <path d="M285.8906 194.4844 Q285.8906 210.7969 283.6406 219.7969 Q281.6719 227.9531 274.0781 243.7031 Q256.2188 280.6875 239.4844 295.875 Q239.3438 296.0156 231.0469 301.7812 Q211.0781 315.7031 210.375 316.125 Q198.7031 323.2969 187.3125 326.25 Q184.0781 327.375 177.4688 329.0625 Q167.9062 331.0312 149.2031 331.0312 Q127.125 331.0312 110.6719 326.3906 Q108.1406 324.8438 102.6562 322.3125 Q93.9375 320.0625 77.2031 313.5938 Q71.1562 310.3594 59.9062 301.5 Q57.6562 299.6719 48.9375 288.2812 Q45.9844 285.0469 40.3594 278.4375 Q38.1094 275.625 32.7656 266.9062 Q30.0938 262.5469 21.375 237.9375 Q18.9844 231.75 14.9062 219.2344 Q11.5312 205.3125 11.5312 179.1562 Q11.5312 175.5 13.7812 164.3906 Q17.4375 146.1094 25.7344 132.75 Q28.9688 127.4062 37.125 120.0234 Q45.2812 112.6406 51.0469 109.8281 Q57.9375 106.4531 61.7344 104.0625 Q66.0938 101.25 70.5234 98.5781 Q74.9531 95.9062 80.0156 94.9219 Q127.8281 86.3438 151.7344 86.3438 Q153 86.3438 162.8438 87.0469 Q185.3438 88.5938 190.4062 89.4375 Q204.8906 91.5469 217.125 97.1719 Q255.5156 114.8906 262.9688 128.25 Q263.5312 130.2188 264.9375 134.0156 Q267.1875 136.9688 271.4062 142.875 Q285.8906 166.7812 285.8906 194.4844 ZM272.8125 197.0156 L272.8125 183.5156 Q272.8125 185.0625 270.9844 176.2031 Q270.7031 178.0312 270.1406 181.6875 Q269.4375 184.5 266.2031 191.5312 Q268.5938 193.2188 272.8125 197.0156 ZM199.9688 120.5156 L199.9688 114.4688 Q199.9688 113.0625 198.2812 113.0625 Q189.7031 119.6719 189.7031 122.7656 Q189.7031 123.8906 190.4062 124.5938 L199.9688 120.5156 ZM264.7969 180.8438 L264.7969 176.625 Q249.4688 184.0781 242.8594 197.1562 Q242.0156 200.8125 240.0469 208.125 Q246.6562 207.7031 247.9219 207.7031 Q248.625 204.3281 251.1562 198.2812 Q254.25 196.1719 259.7344 191.1094 Q264.7969 185.3438 264.7969 180.8438 ZM271.9688 208.6875 Q271.9688 204.8906 269.7188 201.4453 Q267.4688 198 263.9531 198 Q261.1406 198 258.1172 202.0078 Q255.0938 206.0156 255.0938 208.8281 Q255.0938 211.2188 258.1875 214.1719 Q261.2812 217.125 263.8125 217.125 Q267.8906 217.125 267.8906 217.125 Q271.9688 211.0781 271.9688 208.6875 ZM249.75 175.5 Q249.75 175.3594 248.0625 167.0625 Q239.3438 124.1719 209.6719 124.1719 Q207.9844 124.1719 202.6406 125.2266 Q197.2969 126.2812 196.4531 126.9844 Q195.75 128.1094 193.9219 129.7969 Q190.6875 130.6406 184.5 133.1719 Q183.2344 134.5781 180.4219 136.9688 Q177.8906 138.375 172.8281 141.75 Q185.7656 138.7969 185.2031 138.7969 Q185.7656 138.7969 186.8203 139.0078 Q187.875 139.2188 188.4375 139.2188 Q189.8438 139.2188 192.5859 138.5859 Q195.3281 137.9531 196.7344 137.9531 Q207.1406 137.9531 212.0625 139.3594 Q223.5938 142.5938 232.5938 159.6094 Q240.3281 174.2344 241.4531 188.1562 Q249.75 181.125 249.75 175.5 ZM270.1406 174.0938 Q264.9375 151.875 257.2031 140.7656 Q255.2344 139.3594 251.4375 136.2656 Q248.625 133.0312 242.8594 126.9844 Q238.2188 122.625 233.5781 119.7422 Q228.9375 116.8594 217.2656 111.2344 Q204.4688 105.0469 200.6719 104.3438 Q177.8906 99.7031 169.4531 99.7031 L135.7031 99.7031 Q135.5625 99.7031 111.375 102.0938 Q125.0156 105.6094 131.625 113.9062 Q138.0938 104.0625 151.0312 104.0625 Q160.1719 104.0625 162.8438 112.7812 Q163.2656 114.0469 164.9531 128.9531 Q167.9062 124.1719 171 119.25 Q175.7812 112.3594 178.5938 112.3594 Q182.5312 112.3594 183.9375 113.3438 Q186.0469 115.1719 188.1562 117 Q193.6406 108.5625 199.125 108.5625 Q202.7812 108.5625 204.1875 112.2188 Q205.0312 115.5938 205.875 118.8281 Q210.7969 117.8438 212.9062 117.8438 Q224.7188 117.8438 234.8438 126.5625 Q244.125 134.4375 248.3438 146.25 Q249.0469 149.2031 250.7344 155.1094 Q253.4062 163.8281 255.6562 174.7969 Q262.2656 171.7031 266.625 171.7031 Q268.4531 171.7031 270.1406 174.0938 ZM183.0938 123.8906 Q183.0938 117.8438 180.4219 117.8438 Q178.5938 117.8438 173.6016 125.2969 Q168.6094 132.75 168.6094 134.8594 Q168.6094 135.4219 168.75 136.6172 Q168.8906 137.8125 168.8906 138.375 Q172.125 135.2812 175.9219 133.0312 Q180.8438 130.2188 181.2656 129.7969 Q183.0938 128.1094 183.0938 123.8906 ZM263.9531 223.0312 Q262.4062 222.6094 259.1719 221.625 Q259.4531 223.7344 260.1562 227.8125 Q261.4219 226.2656 263.9531 223.0312 ZM158.0625 123.1875 L158.0625 116.2969 Q158.0625 109.4062 149.625 109.4062 Q145.4062 109.4062 140.9062 111.7969 Q139.5 112.5 136.8281 115.5938 Q134.1562 118.6875 134.1562 119.9531 Q134.1562 121.5 134.5781 124.0312 Q135.1406 126.9844 135.2812 128.1094 Q142.7344 126.2812 144.1406 126.2812 Q146.3906 126.2812 149.4844 129.5156 Q153.7031 122.625 158.0625 123.1875 ZM235.125 195.4688 Q235.125 184.6406 229.3594 168.3281 Q228.5156 165.375 226.4062 159.8906 Q221.9062 151.3125 214.0312 146.5312 Q210.0938 144.1406 201.9375 144.1406 L187.4531 144.1406 Q184.2188 144.1406 168.1875 149.9062 L164.3906 146.1094 Q166.0781 133.0312 166.0781 135.4219 Q166.0781 129.9375 160.5938 124.5938 Q156.0938 126.9844 154.2656 133.1719 Q150.6094 145.9688 150.6094 149.0625 Q150.6094 152.4375 152.1562 153.5625 Q156.7969 151.3125 157.9219 151.3125 Q158.625 151.3125 162.6328 156.2344 Q166.6406 161.1562 167.4844 161.6484 Q168.3281 162.1406 170.0156 163.125 Q172.5469 165.2344 176.9062 175.6406 Q181.2656 175.6406 184.0781 175.9219 Q188.7188 180.1406 190.125 189.2812 Q192.2344 203.9062 192.375 204.1875 Q192.7969 203.625 199.125 194.0625 Q204.3281 185.9062 205.7344 185.9062 Q208.5469 185.9062 208.5469 188.0156 L208.5469 216.2812 Q210.0938 214.0312 213.6094 210.5156 Q216 209.1094 231.3281 209.1094 Q231.3281 209.1094 232.0312 206.2969 Q232.1719 205.7344 234 201.0938 Q235.125 198 235.125 195.4688 ZM253.8281 228.5156 Q253.8281 223.5938 251.7188 219.6562 Q249.0469 214.875 244.6875 214.875 Q234.4219 214.875 234.4219 223.5938 L234.4219 227.9531 Q234.4219 234.9844 235.125 237.375 Q236.6719 242.4375 242.0156 242.4375 Q247.2188 242.4375 250.5938 237.9375 Q253.8281 233.8594 253.8281 228.5156 ZM232.0312 216.4219 Q229.5 214.875 224.1562 214.875 Q213.3281 214.875 213.3281 220.5 L213.3281 226.4062 Q214.3125 226.5469 218.1094 227.5312 Q221.0625 228.2344 222.8906 228.2344 Q227.25 228.2344 229.0781 224.0156 Q230.4844 220.2188 232.0312 216.4219 ZM147.5156 138.6562 Q147.5156 138.0938 144.7031 132.6094 Q142.3125 132.6094 138.6562 133.1719 Q137.25 133.875 133.4531 138.3047 Q129.6562 142.7344 129.6562 144 L129.6562 145.8281 L145.9688 145.8281 Q147.5156 138.375 147.5156 138.6562 ZM156.6562 161.8594 L156.6562 158.9062 Q156.0938 158.9062 155.1094 159.8906 L155.1094 161.8594 L156.6562 161.8594 ZM171 182.3906 Q170.2969 180.4219 168.75 176.625 L166.6406 176.625 L166.6406 179.5781 Q168.8906 181.8281 171 182.3906 ZM239.0625 249.1875 L236.9531 249.1875 L236.9531 251.2969 Q239.0625 250.3125 239.0625 249.1875 ZM161.7188 179.0156 Q161.7188 176.9062 160.4531 173.3906 Q158.7656 169.0312 158.4844 167.7656 L152.5781 167.7656 Q152.0156 167.7656 150.8203 169.0312 Q149.625 170.2969 149.625 170.8594 Q149.625 173.3906 151.7344 177.8906 Q153.9844 182.8125 156.0938 182.8125 Q155.5312 182.8125 161.5781 180.1406 Q161.7188 179.7188 161.7188 179.0156 ZM202.9219 216 L202.9219 201.0938 Q198.9844 205.3125 192.5156 214.5938 Q190.6875 220.2188 186.6094 231.3281 L189.8438 231.3281 Q190.6875 231.3281 194.625 228.0938 Q198.5625 224.8594 199.2656 223.7344 Q202.9219 218.3906 202.9219 216 ZM232.0312 247.7812 Q232.0312 245.5312 228.375 239.5547 Q224.7188 233.5781 222.75 233.5781 Q218.5312 233.5781 215.4375 237.4453 Q212.3438 241.3125 212.3438 245.6719 Q212.3438 246.5156 212.4844 248.2031 Q212.625 249.8906 212.625 250.7344 Q212.625 251.2969 212.2734 252.4219 Q211.9219 253.5469 211.9219 254.1094 Q211.9219 259.4531 219.9375 259.4531 Q224.8594 259.4531 228.4453 256.0781 Q232.0312 252.7031 232.0312 247.7812 ZM138.0938 160.1719 L138.0938 157.9219 L132.8906 157.9219 Q131.4844 158.7656 131.4844 161.5781 L131.4844 162.8438 Q131.4844 165.2344 132.0469 166.7812 Q133.7344 166.2188 136.9688 164.9531 Q137.1094 164.25 137.6016 162.6328 Q138.0938 161.0156 138.0938 160.1719 ZM147.2344 178.7344 L146.6719 174.9375 L145.9688 174.9375 L146.3906 178.7344 L147.2344 178.7344 ZM164.3906 193.9219 Q164.3906 192.6562 162 185.4844 Q161.2969 185.9062 158.2031 187.4531 Q158.2031 189.8438 156.8672 193.9922 Q155.5312 198.1406 155.5312 200.1094 L157.0781 200.1094 Q164.3906 197.2969 164.3906 193.9219 ZM124.875 162.7031 L124.875 161.5781 L124.1719 161.5781 L124.1719 162.7031 L124.875 162.7031 ZM142.1719 181.5469 Q142.1719 180.5625 141.3984 178.5938 Q140.625 176.625 140.625 175.6406 Q140.625 173.8125 142.0312 171.4219 L137.6719 171.4219 Q139.9219 176.2031 139.5 184.2188 Q142.1719 182.8125 142.1719 181.5469 ZM151.875 187.3125 Q151.875 184.6406 149.4844 184.6406 Q143.8594 184.6406 143.8594 188.5781 Q143.8594 189.9844 144.3516 192.5859 Q144.8438 195.1875 144.8438 196.5938 Q146.1094 196.875 148.6406 198 Q151.875 185.3438 151.875 187.3125 ZM134.0156 179.2969 L134.0156 177.1875 L131.625 174.7969 L130.9219 177.75 L132.4688 179.2969 L134.0156 179.2969 ZM207 232.875 L207 221.0625 Q202.2188 234.5625 188.5781 237.5156 Q185.4844 237.6562 180 239.625 Q171.9844 245.1094 171.9844 249.8906 Q171.9844 252.4219 172.5469 253.5469 Q175.9219 252.7031 182.5312 245.8125 Q188.5781 239.4844 192.5156 239.4844 Q200.25 239.4844 203.7656 241.5938 Q207 234.1406 207 232.875 ZM183.7969 222.8906 Q183.2344 223.3125 171.4219 231.1875 Q178.5938 233.1562 177.4688 233.1562 Q181.2656 233.1562 183.7969 222.8906 ZM252 255.6562 L252 253.6875 L248.3438 253.6875 Q248.0625 253.6875 226.6875 264.5156 Q204.4688 275.7656 199.6875 277.0312 Q193.9219 278.5781 178.3125 279.5625 Q177.4688 280.125 177.3281 281.1094 Q180.5625 283.3594 185.2031 283.3594 Q194.9062 283.3594 202.0781 281.1094 Q208.6875 279 229.6406 268.875 Q252 257.9062 252 255.6562 ZM213.3281 265.5 Q212.625 264.9375 211.3594 263.8125 Q209.3906 265.7812 209.3906 266.9062 Q213.4688 265.5 213.3281 265.5 ZM126.1406 180.4219 Q126.1406 179.5781 125.6484 178.2422 Q125.1562 176.9062 125.0156 176.3438 Q124.4531 175.3594 123.0469 175.3594 Q123.0469 178.5938 122.7656 180.8438 Q122.4844 181.2656 121.3594 181.8281 L121.3594 186.8906 Q121.5 186.6094 124.0312 183.5156 Q126.1406 180.9844 126.1406 180.4219 ZM138.5156 198.8438 L138.5156 196.4531 Q138.5156 185.4844 130.0781 185.4844 Q126 185.4844 126 191.8125 Q126 192.2344 126.1406 193.5 Q126.1406 194.625 126.1406 195.1875 Q130.6406 200.25 133.875 200.25 Q133.875 200.25 138.5156 198.8438 ZM129.7969 131.7656 Q129.7969 122.2031 126.7031 117.5625 Q125.1562 115.3125 121.6406 112.3594 Q117.7031 108.9844 115.5938 108.9844 L103.2188 108.9844 Q96.75 108.9844 88.8047 113.7656 Q80.8594 118.5469 77.7656 124.3125 Q76.3594 126.9844 76.3594 132.6094 Q76.3594 134.0156 75.375 135.1406 Q76.5 135 78.1875 135 Q81.2812 135 91.5469 137.6719 Q102.375 140.625 103.7812 142.1719 L103.7812 144.4219 Q102.9375 145.9688 100.6875 145.9688 Q96.6094 145.9688 89.0859 143.5078 Q81.5625 141.0469 77.625 141.0469 Q72.1406 141.0469 64.8281 143.4375 Q57.0938 145.9688 56.3906 145.9688 Q54.8438 145.9688 50.0625 148.2891 Q45.2812 150.6094 44.0156 151.875 Q43.4531 152.8594 42.3281 154.9688 Q39.7969 158.625 37.3359 162.5625 Q34.875 166.5 34.875 171 Q34.875 180.1406 42.4688 180.1406 Q53.5781 180.1406 68.2031 171.1406 Q61.5938 165.0938 52.7344 158.625 Q55.2656 155.6719 55.5469 155.6719 Q59.3438 155.6719 64.4062 160.5938 Q68.2031 164.3906 72 168.1875 Q73.9688 166.9219 77.625 163.9688 Q75.7969 162 71.7188 158.625 Q69.6094 157.6406 65.5312 155.3906 L65.5312 152.8594 L65.8125 152.5781 L71.0156 152.5781 Q72.8438 152.5781 76.7812 156.5156 Q80.7188 160.4531 81.2812 162.4219 Q92.1094 158.7656 92.6719 158.7656 Q94.2188 158.7656 95.0625 159.3281 Q95.9062 160.5938 97.7344 162.7031 Q98.5781 163.4062 104.3438 167.1328 Q110.1094 170.8594 110.5312 170.8594 Q111.9375 170.8594 115.7344 166.2188 Q114.8906 163.4062 114.8906 161.2969 Q114.8906 158.0625 117.5625 155.6719 Q120.2344 153.8438 122.7656 151.875 Q123.1875 149.625 129.7969 131.7656 ZM206.5781 258.4688 Q206.5781 256.5 203.3438 249.75 Q201.375 245.5312 196.1719 245.5312 Q195.4688 245.5312 194.2734 245.8125 Q193.0781 246.0938 192.5156 246.0938 Q192.5156 247.6406 193.2188 248.9062 Q192.5156 250.1719 190.125 250.5938 Q187.0312 251.1562 186.3281 251.5781 Q184.2188 254.8125 184.2188 256.0781 Q184.2188 258.4688 184.9219 264.9375 Q190.5469 272.25 192.7969 272.25 Q197.0156 272.25 201.7969 267.4688 Q206.5781 262.6875 206.5781 258.4688 ZM187.0312 207.8438 Q187.0312 194.9062 182.9531 181.5469 L179.1562 181.5469 Q177.0469 183.2344 176.3438 186.0469 Q175.3594 190.125 174.9375 190.9688 Q172.6875 193.6406 168.8906 199.4062 Q166.5 206.0156 161.0156 218.9531 Q161.4375 214.875 158.7656 208.2656 L156.6562 209.1094 Q153.4219 203.7656 150.0469 200.6719 L146.25 200.6719 Q146.25 200.9531 146.25 207.8438 Q137.6719 206.8594 136.9688 206.8594 Q131.625 206.8594 126.9844 210.5156 Q123.3281 213.75 119.5312 216.9844 Q116.2969 218.1094 110.25 221.3438 Q104.7656 225.2812 104.7656 230.4844 Q104.7656 231.8906 105.75 234.4219 Q109.9688 232.3125 111.2344 232.3125 Q111.7969 232.3125 112.9922 232.7344 Q114.1875 233.1562 114.75 233.1562 Q117.7031 233.1562 126.2109 225.1406 Q134.7188 217.125 136.8281 217.125 Q142.5938 217.125 141.3281 225.1406 Q143.4375 223.5938 145.5469 222.1875 Q146.6719 220.9219 146.6719 217.2656 Q146.6719 212.7656 148.0781 210.5156 Q149.625 214.5938 153.4219 221.0625 Q153.5625 221.2031 155.5312 222.4688 Q156.7969 223.1719 156.7969 224.2969 Q156.7969 226.2656 153 230.0625 Q149.9062 226.9688 148.3594 226.9688 Q146.3906 226.9688 144.7031 230.4844 Q142.875 234.4219 140.9062 234.9844 Q140.7656 235.6875 140.7656 237.0938 Q140.7656 241.7344 145.4062 242.7188 Q153.4219 244.6875 153.4219 244.6875 Q157.9219 237.375 169.1719 224.8594 Q175.2188 220.9219 186.8906 212.4844 Q187.0312 210.6562 187.0312 207.8438 ZM172.4062 238.6406 Q171.7031 238.2188 170.4375 237.2344 L168.8906 237.2344 Q169.0312 238.2188 169.7344 240.1875 L171.2812 240.1875 Q171.7031 239.7656 172.4062 238.6406 ZM70.875 135.7031 L70.875 130.5 Q70.875 129.7969 68.5547 128.7422 Q66.2344 127.6875 65.3906 127.6875 Q61.4531 127.6875 56.25 131.7656 Q51.6094 135.4219 49.2188 139.3594 L49.2188 143.1562 Q49.7812 143.0156 59.7656 138.5156 Q66.0938 135.7031 70.875 135.7031 ZM165.2344 243.7031 Q164.9531 242.7188 164.6719 240.75 Q163.6875 241.5938 162.1406 243.7031 L165.2344 243.7031 ZM115.875 193.3594 L115.875 180.7031 Q114.8906 180.4219 112.0781 178.875 Q106.7344 187.1719 99.4219 194.7656 L114.3281 194.7656 L115.875 193.3594 ZM104.3438 174.0938 Q97.0312 168.1875 94.3594 168.1875 Q94.2188 168.1875 93.6562 168.3281 Q84.9375 176.3438 84.9375 181.9688 Q84.9375 183.9375 85.3594 188.8594 Q85.7812 193.2188 85.6406 195.75 L104.3438 174.0938 ZM81.9844 172.5469 L81.9844 170.0156 Q79.0312 171.8438 73.125 175.6406 Q76.0781 174.6562 81.9844 172.5469 ZM179.8594 274.3594 Q175.7812 267.0469 176.7656 259.4531 Q171.7031 260.2969 171.4219 260.2969 Q167.4844 260.2969 166.9922 256.7812 Q166.5 253.2656 166.0781 250.0312 L157.0781 250.0312 Q157.6406 250.0312 143.4375 259.5938 Q144.1406 261.2812 145.8281 264.6562 Q150.0469 262.5469 153.8438 262.5469 Q160.0312 262.5469 163.5469 266.2031 Q165.375 268.1719 168.8906 275.3438 Q173.25 274.2188 179.8594 274.3594 ZM147.9375 249.3281 Q144.9844 248.9062 142.1016 245.6719 Q139.2188 242.4375 138.7969 239.3438 Q135 246.9375 135 248.0625 L135 254.3906 L139.6406 254.3906 Q140.4844 254.3906 147.9375 249.3281 ZM139.5 267.3281 Q139.5 262.5469 133.875 262.5469 Q131.3438 262.5469 126.2812 264.3047 Q121.2188 266.0625 118.6875 266.0625 Q118.125 266.0625 117.5625 265.7812 Q117.7031 264.7969 117.7031 264.375 Q117.7031 259.4531 111.375 259.4531 Q110.5312 259.4531 109.0547 259.875 Q107.5781 260.2969 106.7344 260.2969 Q106.3125 260.2969 98.8594 259.0312 Q100.2656 253.6875 100.2656 253.6875 Q97.1719 252 93.7969 252 Q92.6719 252 90.5625 252.2109 Q88.4531 252.4219 87.3281 252.4219 Q82.9688 252.4219 78.4688 250.1719 Q80.7188 248.2031 80.7188 247.6406 Q80.7188 244.6875 77.4141 241.3828 Q74.1094 238.0781 71.1562 238.0781 Q70.7344 238.0781 67.2188 239.3438 Q63.8438 234.8438 63.8438 234.7031 Q63.8438 233.1562 64.6875 229.9922 Q65.5312 226.8281 65.5312 225.2812 Q65.5312 223.0312 64.4062 220.0781 Q62.5781 218.6719 53.4375 216 L52.5938 215.8594 Q52.7344 214.875 52.7344 214.4531 Q52.7344 211.9219 50.9062 209.25 Q49.0781 206.5781 49.0781 201.5859 Q49.0781 196.5938 42.6094 196.5938 Q32.4844 196.5938 32.4844 202.9219 Q32.4844 203.4844 32.4844 204.4688 Q32.625 205.5938 32.625 206.1562 Q32.625 207.8438 29.9531 207.8438 Q28.4062 207.8438 26.8594 206.5781 Q26.7188 204.1875 26.7188 203.4844 Q26.7188 189.9844 41.0625 189.9844 Q43.875 189.9844 46.9688 191.8125 Q51.1875 194.0625 52.4531 194.4844 Q56.9531 189.4219 66.2344 179.8594 Q54.4219 184.6406 44.2969 184.6406 Q36 184.6406 32.4844 177.6094 Q32.2031 176.9062 30.6562 175.3594 Q29.9531 174.6562 29.9531 172.125 Q29.9531 155.8125 43.1719 147.0938 Q43.0312 143.4375 43.4531 138.6562 Q49.6406 122.7656 64.2656 122.7656 Q67.9219 122.7656 71.7188 124.1719 Q81.5625 108.1406 92.9531 105.75 Q95.0625 105.3281 96.75 104.2031 L92.9531 104.2031 Q88.7344 104.2031 76.9219 106.5938 Q76.5 108 75.2344 110.3906 Q73.8281 111.9375 65.6719 115.4531 Q52.4531 121.2188 42.0469 131.7656 Q30.6562 143.4375 27.4219 156.375 Q23.4844 172.4062 23.4844 180 Q23.4844 181.5469 23.625 184.6406 Q23.7656 187.7344 23.7656 189.2812 Q23.7656 201.7969 23.7656 202.3594 Q24.4688 209.25 27.8438 214.7344 Q31.5 218.5312 38.25 226.4062 Q41.7656 232.7344 50.4844 243.7031 Q52.4531 244.4062 56.3906 246.2344 Q58.6406 248.0625 63 251.8594 Q66.0938 253.9688 72.4219 258.1875 Q73.2656 259.4531 75.0938 261.9844 Q82.6875 262.2656 87.4688 264.375 Q95.625 267.8906 98.1562 268.5938 Q105.3281 270.5625 114.0469 270.5625 Q114.4688 270.5625 114.8203 270.2812 Q115.1719 270 115.5938 270 Q116.2969 270 117.2109 271.0547 Q118.125 272.1094 118.6875 272.25 Q125.2969 272.9531 137.9531 274.5 Q139.5 267.0469 139.5 267.3281 ZM129.2344 204.0469 Q126.1406 201.7969 120.5156 196.5938 Q119.1094 198 116.4375 200.6719 L99.2812 200.6719 Q97.875 200.6719 92.7422 202.7109 Q87.6094 204.75 86.2031 205.7344 Q78.3281 211.0781 78.3281 221.7656 Q78.3281 228.6562 80.0156 231.3281 Q84.9375 238.9219 91.125 238.9219 Q92.3906 238.9219 100.6875 236.5312 Q99.7031 235.125 99.7031 231.3281 Q99.7031 217.9688 113.9062 212.7656 Q117 212.2031 122.4844 210.2344 Q123.8906 209.3906 129.2344 204.0469 ZM161.7188 275.3438 Q156.7969 269.1562 154.4062 269.1562 Q147.5156 269.1562 143.8594 274.7812 L161.7188 275.3438 ZM81.9844 199.8281 Q81.9844 198.9844 80.8594 196.9453 Q79.7344 194.9062 79.7344 194.2031 L79.7344 178.0312 L78.1875 178.0312 Q72.5625 182.1094 62.1562 191.1094 Q55.4062 198 55.4062 200.6719 Q55.4062 201.2344 58.0781 209.1094 Q58.0781 209.1094 63.8438 209.1094 Q67.7812 209.1094 74.3906 206.1562 Q81.9844 202.9219 81.9844 199.8281 ZM135.8438 227.6719 L135.8438 223.4531 L133.875 223.4531 Q132.4688 223.4531 127.8984 226.2656 Q123.3281 229.0781 122.2031 230.4844 Q121.7812 230.9062 118.5469 238.3594 Q116.1562 243.9844 113.4844 243.9844 Q111.375 243.9844 108.0703 242.7891 Q104.7656 241.5938 103.7812 241.5938 Q102.6562 241.5938 100.7578 242.5078 Q98.8594 243.4219 97.7344 243.4219 L85.6406 243.4219 Q85.7812 244.4062 86.0625 246.375 Q83.9531 246.2344 92.6719 246.2344 Q102.375 246.2344 106.5938 254.9531 L118.6875 254.9531 Q121.9219 259.4531 122.9062 259.4531 Q125.4375 259.4531 128.9531 257.0625 Q129.0938 253.9688 129.7969 247.6406 Q130.2188 245.8125 133.1719 236.9531 Q135.8438 228.7969 135.8438 227.6719 ZM74.3906 233.1562 L74.3906 231.4688 Q72.7031 227.3906 72.7031 224.5781 Q72.7031 217.2656 73.9688 212.7656 Q71.5781 213.4688 66.9375 214.5938 Q70.875 219.375 70.875 221.7656 Q70.875 228.0938 70.3125 232.5938 L71.0156 233.1562 L74.3906 233.1562 ZM96.75 151.3125 Q96.75 154.4062 95.2031 157.5 Q93.6562 157.2188 93.2344 154.9688 Q92.8125 153.2812 92.5312 151.5938 Q91.9688 150.3281 90.9844 147.7969 L94.3594 147.7969 Q96.75 150.0469 96.75 151.3125 Z" stroke="none" />
    </g>
  </g>
</svg>
